<?xml version="1.0" standalone="no"?><!DOCTYPE svg PUBLIC "-//W3C//DTD SVG 1.1//EN" "http://www.w3.org/Graphics/SVG/1.1/DTD/svg11.dtd"><svg t="1736210934413" class="icon" viewBox="0 0 1024 1024" version="1.1" xmlns="http://www.w3.org/2000/svg" p-id="4203" xmlns:xlink="http://www.w3.org/1999/xlink" width="200" height="200"><path d="M514 130.2c-6.2 0-18.7 4.8-35 35.8-39.2 66.8-101.1 175.9-101.1 175.9s-113.2 21-186.2 34.2c-35.8 5.6-47.5 36.1-29.3 57.5 51.1 59 142.2 156.5 142.2 156.5s-14.8 107.1-23.2 180.2c-2.7 28.1 12.8 44.1 34.4 44.1 7.9-0.1 15.6-1.8 22.7-5.1L514 726c20.7 10.2 113 55.2 173.6 84.3 7 3.3 14.7 5 22.5 5.1 21.3 0 36.6-16.1 34-44.2-8.2-73.2-22.9-180.4-22.9-180.4S811 493.2 861.8 434c18-21.5 6.4-52-29-57.6-72.2-13.2-184.1-34.2-184.1-34.2s-61.5-109.2-100-176.1c-13.7-24.7-24.1-32.6-30.7-34.8-1.3-0.5-2.6-0.8-4-0.8v-0.3z m0 0" fill="#FF9C00" p-id="4204"></path></svg>